<svg width="800px" height="800px" viewBox="0 0 1024 1024" class="icon" xmlns="http://www.w3.org/2000/svg">
  <path d="M168.8 224h-8.4c-35.3 0-64 28.7-64 64v56.3c0.9-2.2 1.8-4.5 2.8-6.7 17.5-41.4 40.9-79.4 69.6-113.6zM96.5 679.7V736c0 35.3 28.7 64 64 64h8.4c-28.8-34.2-52.1-72.3-69.6-113.7-1-2.1-1.9-4.4-2.8-6.6z" fill="#94a3b8" />
  <path d="M863.5 224H258.3C178.5 294.4 128 397.4 128 512s50.5 217.6 130.3 288h605.1c35.3 0 64-28.7 64-64V288c0.1-35.4-28.5-64-63.9-64z" fill="#3b82f6" />
  <path d="M125.1 289.7L512 673.6l382.6-385.5L512 543.9zM717.9 836.2c-14.9 9.5-19.3 29.3-9.8 44.2 6.1 9.6 16.4 14.8 27 14.8 5.9 0 11.8-1.6 17.2-5C791 865.6 825.7 835 855.1 800h-89c-15 13.2-31.1 25.3-48.2 36.2zM927.5 344.1v335.5c21.3-53 32.5-110 32.5-167.6 0-58.4-11.1-115.1-32.5-167.9z" fill="#2563eb" />
  <path d="M96.5 288v56.3c0.9-2.2 1.8-4.5 2.8-6.7 17.5-41.4 40.8-79.5 69.6-113.7h-8.4c-35.4 0.1-64 28.7-64 64.1zM160.5 800h8.4c-28.8-34.2-52.1-72.3-69.6-113.7-0.9-2.2-1.9-4.4-2.8-6.7V736c0 35.4 28.6 64 64 64z" fill="#64748b" />
  <path d="M177.3 324L512 543.9l182.9-122.3c-15.2-74.2-48.8-141.8-95.8-197.7H258.3c-32.3 28.5-59.7 62.3-81 100.1z" fill="#93c5fd" />
  <path d="M703 481.2L512 673.6 171.1 335.4C143.6 388.3 128 448.3 128 512c0 114.6 50.5 217.6 130.3 288h340.8C664.6 722.2 704 621.7 704 512c0-10.3-0.4-20.6-1-30.8z" fill="#60a5fa" />
</svg>
